<?xml version="1.0" encoding="iso-8859-1"?>
<!-- Generator: Adobe Illustrator 19.0.0, SVG Export Plug-In . SVG Version: 6.00 Build 0)  -->
<svg version="1.1" id="Capa_1" xmlns="http://www.w3.org/2000/svg" xmlns:xlink="http://www.w3.org/1999/xlink" x="0px" y="0px"
	 viewBox="0 0 480 480" style="enable-background:new 0 0 480 480;" xml:space="preserve">
<g>
	<g>
		<path d="M438.629,460c-3.401-9.582-12.461-15.988-22.629-16h-24V291.9c27.863-0.508,47.088-6.682,59.887-19.334
			c14.188-14.031,20.387-35.184,20.105-68.59c-0.035-4.332-3.512-7.849-7.844-7.934c-32.262-0.594-54.008,5.527-68.035,19.391
			c-5.14,5.152-9.251,11.237-12.113,17.928c-2.862-6.691-6.973-12.776-12.113-17.928c-14.023-13.867-35.617-19.941-68.035-19.391
			c-4.331,0.085-7.808,3.602-7.844,7.934c-0.281,33.406,5.918,54.559,20.105,68.59c12.799,12.656,32.021,18.826,59.887,19.334V444
			h-24c-10.167,0.012-19.228,6.418-22.629,16h-42.742c-3.401-9.582-12.461-15.988-22.629-16h-24l-0.005-72.125
			c21.877-0.62,37.137-5.698,47.439-15.887c11.684-11.551,16.789-28.828,16.559-56.023c-0.039-4.33-3.514-7.844-7.844-7.93
			c-26.266-0.441-44.039,4.559-55.586,15.977c-0.205,0.203-0.371,0.44-0.572,0.647l-0.001-25.379
			c26.139-4.413,43.752-29.18,39.34-55.319s-29.18-43.752-55.319-39.34c-26.139,4.413-43.752,29.18-39.34,55.319
			c3.4,20.143,19.177,35.927,39.319,39.336l0.001,25.361c-0.194-0.199-0.354-0.43-0.553-0.626
			c-11.547-11.418-29.289-16.48-55.586-15.977c-4.329,0.086-7.805,3.6-7.844,7.93c-0.23,27.195,4.875,44.473,16.559,56.023
			c10.301,10.187,25.555,15.266,47.428,15.887L224,444h-24c-10.167,0.012-19.228,6.418-22.629,16h-50.742
			c-3.401-9.582-12.461-15.988-22.629-16H79.999l-0.007-40.124c21.878-0.62,37.14-5.698,47.442-15.888
			c11.684-11.551,16.789-28.828,16.559-56.023c-0.039-4.33-3.514-7.844-7.844-7.93c-26.293-0.453-44.039,4.559-55.586,15.977
			c-3.46,3.478-6.349,7.48-8.563,11.858c-2.213-4.378-5.103-8.38-8.563-11.858c-11.551-11.418-29.258-16.488-55.586-15.977
			c-4.329,0.086-7.805,3.6-7.844,7.93c-0.231,27.195,4.875,44.473,16.559,56.023c10.3,10.187,25.553,15.266,47.425,15.887
			L63.999,444H40c-10.167,0.012-19.228,6.418-22.629,16H0v16h32v-8c0.006-4.416,3.584-7.994,8-8h64c4.416,0.006,7.994,3.584,8,8v8
			h80v-8c0.006-4.416,3.584-7.994,8-8h64c4.416,0.006,7.994,3.584,8,8v8h72v-8c0.006-4.416,3.584-7.994,8-8h64
			c4.416,0.006,7.994,3.584,8,8v8h56v-16H438.629z M407.363,226.813c9.688-9.582,25.227-14.34,48.555-14.781
			c-0.68,23.852-5.598,39.582-15.281,49.156c-9.688,9.582-25.227,14.34-48.555,14.781
			C392.762,252.117,397.68,236.387,407.363,226.813z M327.363,261.188c-9.684-9.574-14.602-25.305-15.281-49.156
			c23.324,0.441,38.867,5.199,48.555,14.781c9.684,9.574,14.602,25.305,15.281,49.156
			C352.594,275.527,337.051,270.77,327.363,261.188z M251.813,319.391c7.215-7.133,18.777-10.789,36.066-11.324
			c-0.707,17.695-4.48,29.414-11.695,36.547c-7.211,7.133-18.777,10.789-36.063,11.32
			C240.828,338.238,244.602,326.523,251.813,319.391z M187.816,344.613c-7.215-7.133-10.988-18.852-11.695-36.547
			c17.285,0.535,28.855,4.191,36.066,11.324c7.211,7.133,10.984,18.848,11.691,36.543
			C206.598,355.402,195.027,351.746,187.816,344.613z M91.813,351.391c7.215-7.133,18.777-10.789,36.066-11.324
			c-0.707,17.695-4.481,29.414-11.695,36.547c-7.211,7.133-18.777,10.789-36.063,11.32
			C80.828,370.238,84.602,358.523,91.813,351.391z M27.816,376.613c-7.215-7.133-10.988-18.852-11.695-36.547
			c17.285,0.535,28.855,4.191,36.066,11.324c7.211,7.133,10.984,18.848,11.691,36.543C46.598,387.402,35.027,383.746,27.816,376.613
			z M200,236c0-17.673,14.327-32,32-32c17.673,0,32,14.327,32,32s-14.327,32-32,32C214.335,267.98,200.02,253.665,200,236z"/>
	</g>
</g>
<g>
	<g>
		<path d="M384,36c-35.346,0-64,28.654-64,64c0.04,35.329,28.671,63.96,64,64c35.346,0,64-28.654,64-64
			C448,64.654,419.346,36,384,36z M384,124c-4.418,0-8-3.582-8-8h-16c0.031,10.137,6.439,19.158,16,22.525v8.752
			c-26.111-4.385-43.723-29.106-39.338-55.217c3.385-20.158,19.18-35.953,39.338-39.338v8.752c-9.561,3.368-15.969,12.389-16,22.526
			c0,16.887,13.527,21.102,21.609,23.621C390.641,110.438,392,111.535,392,116C392,120.418,388.418,124,384,124z M392,147.277
			v-8.752c9.562-3.368,15.969-12.389,16-22.526c0-16.91-13.539-21.129-21.629-23.652C377.355,89.539,376,88.445,376,84
			c0-4.418,3.582-8,8-8s8,3.582,8,8h16c-0.031-10.137-6.438-19.158-16-22.526v-8.752c23.068,3.914,39.96,23.88,40,47.277
			C431.96,123.398,415.068,143.363,392,147.277z"/>
	</g>
</g>
<g>
	<g>
		<path d="M431.734,16.691l-7.969,13.875c6.062,3.482,11.644,7.739,16.606,12.664l11.273-11.352
			C445.698,25.971,439.004,20.865,431.734,16.691z"/>
	</g>
</g>
<g>
	<g>
		<path d="M384,180c-6.961,0.004-13.893-0.898-20.621-2.684l-4.117,15.461c8.072,2.142,16.387,3.225,24.738,3.223h0.09L384,180z"/>
	</g>
</g>
<g>
	<g>
		<path d="M424.047,169.273c-6.046,3.501-12.526,6.192-19.273,8.004l4.145,15.453c8.103-2.175,15.885-5.407,23.144-9.613
			L424.047,169.273z"/>
	</g>
</g>
<g>
	<g>
		<path d="M466.969,51.68l-13.82,8.062c3.521,6.032,6.233,12.502,8.066,19.242l15.437-4.195
			C474.453,66.694,471.197,58.925,466.969,51.68z"/>
	</g>
</g>
<g>
	<g>
		<path d="M384,4h-0.266L384,20c6.907-0.005,13.785,0.881,20.465,2.637l4.078-15.469C400.532,5.06,392.283,3.996,384,4z"/>
	</g>
</g>
<g>
	<g>
		<path d="M327.512,156.652l-11.297,11.328c5.936,5.921,12.62,11.041,19.883,15.23l7.992-13.859
			C338.035,165.858,332.462,161.589,327.512,156.652z"/>
	</g>
</g>
<g>
	<g>
		<path d="M358.891,7.316c-8.098,2.193-15.872,5.442-23.121,9.664l8.047,13.828c6.037-3.516,12.511-6.221,19.254-8.047
			L358.891,7.316z"/>
	</g>
</g>
<g>
	<g>
		<path d="M291.191,75.359c-2.135,8.095-3.206,16.433-3.188,24.805l1.117,0.004L304,100c-0.005-6.933,0.889-13.837,2.66-20.539
			L291.191,75.359z"/>
	</g>
</g>
<g>
	<g>
		<path d="M464,100c0.003,6.989-0.905,13.949-2.703,20.703l15.461,4.125c2.156-8.1,3.246-16.446,3.242-24.828v-0.355L464,100z"/>
	</g>
</g>
<g>
	<g>
		<path d="M453.313,139.976c-3.502,6.052-7.777,11.623-12.719,16.57l11.32,11.305c5.926-5.931,11.053-12.609,15.25-19.867
			L453.313,139.976z"/>
	</g>
</g>
<g>
	<g>
		<path d="M306.738,120.855l-15.445,4.164c2.182,8.1,5.422,15.876,9.637,23.129l13.836-8.031
			C311.258,134.076,308.56,127.6,306.738,120.855z"/>
	</g>
</g>
<g>
	<g>
		<path d="M315.949,32.293c-5.913,5.941-11.026,12.628-15.211,19.891l13.867,7.984c3.49-6.059,7.755-11.637,12.688-16.594
			L315.949,32.293z"/>
	</g>
</g>
<g>
</g>
<g>
</g>
<g>
</g>
<g>
</g>
<g>
</g>
<g>
</g>
<g>
</g>
<g>
</g>
<g>
</g>
<g>
</g>
<g>
</g>
<g>
</g>
<g>
</g>
<g>
</g>
<g>
</g>
</svg>
