<svg height="512" viewBox="0 0 58 58" width="512" xmlns="http://www.w3.org/2000/svg"><g id="Page-1" fill="none" fill-rule="evenodd"><g id="009---Moisture-Wicking-Fabric" fill="rgb(0,0,0)" fill-rule="nonzero" transform="translate(-1)"><path id="Shape" d="m15.592.43-5.9 6.741c-.12935302.14802718-.15996353.35811563-.07822779.53689908.08173573.17878344.26064883.29308244.45722779.29210092h1.81c.2879646-.00013996.5620123.12386526.7519906.34027199.1899783.21640672.2774448.50420706.2400094.78972801-.3653484 3.2734461-1.7769124 6.3417128-4.025 8.749-3.948 3.944-4.703 10.442-4.848 13.061-.0165573.2754504.08144377.5454995.27080463.746222.18936085.2007226.45324826.3142752.72919537.313778h4.009c.52544981.0054718.9640078-.3997558 1-.924.159-2.361.884-6.759 3.085-8.96 3.4073076-3.5969946 5.467183-8.2607701 5.831-13.202.0447487-.51844756.4796284-.91592761 1-.914h1.946c.1960356-.00019946.3738696-.11494018.4548436-.29347079.0809741-.17853062.050148-.38791093-.0788436-.53552921l-5.9-6.741c-.0949652-.10934272-.2326752-.1721376-.3775-.1721376s-.2825348.06279488-.3775.1721376z"/><path id="Shape" d="m33.624.43-5.9 6.741c-.1289916.14761828-.1598177.35699859-.0788436.53552921.080974.17853061.258808.29327133.4548436.29347079h1.81c.2879646-.00013996.5620123.12386526.7519906.34027199.1899783.21640672.2774448.50420706.2400094.78972801-.3649306 3.2735623-1.7765524 6.3419545-4.025 8.749-3.944 3.944-4.7 10.442-4.846 13.061-.0168445.275618.0810281.5459337.2704211.7468797s.4534471.3146346.7295789.3141203h4.01c.5254498.0054718.9640078-.3997558 1-.924.159-2.361.885-6.759 3.085-8.96 3.4069622-3.5976245 5.4667614-8.2615808 5.831-13.203.0419504-.51982285.4785096-.91883795 1-.914h1.943c.1960356-.00019946.3738696-.11494018.4548436-.29347079.0809741-.17853062.050148-.38791093-.0788436-.53552921l-5.9-6.741c-.0949383-.1083095-.2319714-.17041845-.376-.17041845s-.2810617.06210895-.376.17041845z"/><path id="Shape" d="m51.624.43-5.9 6.741c-.1289916.14761828-.1598177.35699859-.0788436.53552921.080974.17853061.258808.29327133.4548436.29347079h1.81c.2879646-.00013996.5620123.12386526.7519906.34027199.1899783.21640672.2774448.50420706.2400094.78972801-.3649306 3.2735623-1.7765524 6.3419545-4.025 8.749-3.944 3.944-4.7 10.442-4.846 13.061-.0168445.275618.0810281.5459337.2704211.7468797s.4534471.3146346.7295789.3141203h4.01c.5254498.0054718.9640078-.3997558 1-.924.159-2.361.885-6.759 3.085-8.96 3.4069622-3.5976245 5.4667614-8.2615808 5.831-13.203.0419504-.51982285.4785096-.91883795 1-.914h1.943c.1960356-.00019946.3738696-.11494018.4548436-.29347079.0809741-.17853062.050148-.38791093-.0788436-.53552921l-5.9-6.741c-.0949383-.1083095-.2319714-.17041845-.376-.17041845s-.2810617.06210895-.376.17041845z"/><path id="Shape" d="m27 53c.0004207 1.444934-.6242685 2.8194001-1.713116 3.7692662-1.0888474.949866-2.5353751 1.3822449-3.966884 1.1857338-2.7585872-.451705-4.6545273-3.0196969-4.274-5.789.418-3.842 3.588-6.958 4.626-7.885.1862344-.1684263.4697656-.1684263.656 0 1.113.994 4.672 4.5 4.672 8.719z"/><path id="Shape" d="m11 53c.0004207 1.444934-.6242685 2.8194001-1.71311595 3.7692662-1.08884749.949866-2.53537513 1.3822449-3.96688405 1.1857338-2.75858717-.451705-4.6545273-3.0196969-4.274-5.789.418-3.842 3.588-6.958 4.626-7.885.18623442-.1684263.46976558-.1684263.656 0 1.113.994 4.672 4.5 4.672 8.719z"/><path id="Shape" d="m59 53c.0004207 1.444934-.6242685 2.8194001-1.713116 3.7692662-1.0888474.949866-2.5353751 1.3822449-3.966884 1.1857338-2.7585872-.451705-4.6545273-3.0196969-4.274-5.789.418-3.842 3.588-6.958 4.626-7.885.1862344-.1684263.4697656-.1684263.656 0 1.113.994 4.672 4.5 4.672 8.719z"/><path id="Shape" d="m43 53c.0004207 1.444934-.6242685 2.8194001-1.713116 3.7692662-1.0888474.949866-2.5353751 1.3822449-3.966884 1.1857338-2.7585872-.451705-4.6545273-3.0196969-4.274-5.789.418-3.842 3.588-6.958 4.626-7.885.1862344-.1684263.4697656-.1684263.656 0 1.113.994 4.672 4.5 4.672 8.719z"/><path id="Shape" d="m57 34h-54c-1.1045695 0-2 .8954305-2 2s.8954305 2 2 2h.634l-1.491 2.485c-.19180407.3065026-.20321654.6926712-.02984758 1.0099658.17336895.3172946.50451389.5162906.86605974.5204443.36154584.0041536.69717512-.1871822.87778784-.5004101l2.109-3.515h2.668l-1.491 2.485c-.19180407.3065026-.20321654.6926712-.02984758 1.0099658.17336895.3172946.50451389.5162906.86605974.5204443.36154584.0041536.69717512-.1871822.87778784-.5004101l2.109-3.515h2.668l-1.491 2.485c-.1918041.3065026-.2032165.6926712-.0298476 1.0099658.173369.3172946.5045139.5162906.8660598.5204443.3615458.0041536.6971751-.1871822.8777878-.5004101l2.109-3.515h2.668l-1.491 2.485c-.1918041.3065026-.2032165.6926712-.0298476 1.0099658.173369.3172946.5045139.5162906.8660598.5204443.3615458.0041536.6971751-.1871822.8777878-.5004101l2.109-3.515h2.668l-1.491 2.485c-.1918041.3065026-.2032165.6926712-.0298476 1.0099658.173369.3172946.5045139.5162906.8660598.5204443.3615458.0041536.6971751-.1871822.8777878-.5004101l2.109-3.515h2.668l-1.491 2.485c-.1918041.3065026-.2032165.6926712-.0298476 1.0099658.173369.3172946.5045139.5162906.8660598.5204443.3615458.0041536.6971751-.1871822.8777878-.5004101l2.109-3.515h2.668l-1.491 2.485c-.1918041.3065026-.2032165.6926712-.0298476 1.0099658.173369.3172946.5045139.5162906.8660598.5204443.3615458.0041536.6971751-.1871822.8777878-.5004101l2.109-3.515h2.668l-1.491 2.485c-.1918041.3065026-.2032165.6926712-.0298476 1.0099658.173369.3172946.5045139.5162906.8660598.5204443.3615458.0041536.6971751-.1871822.8777878-.5004101l2.109-3.515h2.668l-1.491 2.485c-.1918041.3065026-.2032165.6926712-.0298476 1.0099658.173369.3172946.5045139.5162906.8660598.5204443.3615458.0041536.6971751-.1871822.8777878-.5004101l2.109-3.515h2.668l-1.491 2.485c-.1918041.3065026-.2032165.6926712-.0298476 1.0099658.173369.3172946.5045139.5162906.8660598.5204443.3615458.0041536.6971751-.1871822.8777878-.5004101l2.109-3.515h2.668l-1.491 2.485c-.1918041.3065026-.2032165.6926712-.0298476 1.0099658.173369.3172946.5045139.5162906.8660598.5204443.3615458.0041536.6971751-.1871822.8777878-.5004101l2.109-3.515h1.034c1.1045695 0 2-.8954305 2-2s-.8954305-2-2-2z"/></g></g></svg>