<svg id="Capa_1" enable-background="new 0 0 512 512" height="512" viewBox="0 0 512 512" width="512" xmlns="http://www.w3.org/2000/svg"><path d="m408.033 481.989c-7.428-61.008-59.537-108.426-122.518-108.426h-14.508v-28.498h44.049c47.313 0 85.804-38.491 85.804-85.804v-35.912h-74.061c-21.29 0-40.777 7.811-55.792 20.696v-36.048c12.511-13.057 44.438-50.888 44.438-96.954 0-56.07-47.307-99.95-49.32-101.79l-10.125-9.253-10.123 9.253c-2.014 1.841-49.319 45.721-49.319 101.79 0 46.066 31.926 83.899 44.437 96.955v36.048c-15.014-12.885-34.502-20.696-55.792-20.696h-74.061v35.912c0 47.313 38.491 85.804 85.803 85.804h44.05v28.498h-14.508c-62.981 0-115.09 47.417-122.518 108.426h-68.385v30.01h440.833v-30.011zm-81.236-228.629h44.05v5.901c0 30.765-25.028 55.793-55.793 55.793h-44.049v-5.902c.001-30.764 25.029-55.792 55.792-55.792zm-70.798-210.999c11.727 14.036 29.433 39.981 29.433 68.682 0 28.704-17.711 54.654-29.432 68.683-11.727-14.036-29.432-39.981-29.432-68.683 0-28.704 17.711-54.654 29.431-68.682zm-59.055 272.693c-30.764 0-55.792-25.028-55.792-55.793v-5.901h44.05c30.764 0 55.792 25.028 55.792 55.792v5.902zm-62.675 166.935c7.199-44.404 45.81-78.414 92.216-78.414h59.029c46.406 0 85.018 34.01 92.216 78.414z"/></svg>