<svg id="Capa_1" enable-background="new 0 0 512 512" height="512" viewBox="0 0 512 512" width="512" xmlns="http://www.w3.org/2000/svg"><g><g><path d="m256.18 512c-4.168 0-8.009-2.704-9.405-6.632-1.376-3.872-.213-8.328 2.936-10.99 3.285-2.778 8.091-3.123 11.745-.864 3.5 2.163 5.34 6.399 4.534 10.435-.921 4.616-5.103 8.051-9.81 8.051z"/><path d="m472.997 420.738c22.879-24.614 22.319-66.932 22.28-68.889-.099-4.878-3.702-8.973-8.528-9.69-2.357-.35-58.052-8.32-87.544 13.774-24.5 18.353-23.027 49.631-20.916 63.561h-112.289v-29.734c9.245 2.302 23.668 5.074 39.511 5.074 18.145 0 38.153-3.638 54.366-15.784 39.418-29.528 38.535-96.143 38.479-98.964-.099-4.878-3.702-8.973-8.528-9.69-3.123-.464-76.902-11.027-115.562 17.933-3.06 2.292-5.805 4.744-8.266 7.318v-40.437c7.172 1.616 17.157 3.267 28.015 3.267 14.356 0 30.239-2.888 43.153-12.563 31.214-23.383 30.524-75.692 30.479-77.907-.099-4.878-3.702-8.973-8.528-9.69-2.438-.362-60.026-8.605-90.482 14.21-.914.684-1.792 1.386-2.637 2.104v-32.058c5.084.981 11.435 1.824 18.251 1.823 11.138 0 23.517-2.251 33.631-9.827 24.245-18.164 23.72-58.322 23.686-60.023-.099-4.878-3.702-8.973-8.528-9.69-1.955-.29-10.42-1.442-21.292-1.392.309-2.398.465-4.82.465-7.252 0-30.995-25.217-56.212-56.213-56.212s-56.213 25.217-56.213 56.213c0 2.438.156 4.858.464 7.251-10.87-.05-19.335 1.102-21.29 1.392-4.826.717-8.43 4.813-8.528 9.69-.034 1.701-.56 41.859 23.687 60.023 10.115 7.577 22.491 9.828 33.63 9.827 6.815 0 13.167-.843 18.251-1.824v32.059c-.845-.718-1.723-1.42-2.637-2.104-30.456-22.814-88.046-14.571-90.482-14.21-4.826.717-8.43 4.812-8.528 9.69-.045 2.215-.734 54.524 30.479 77.907 12.916 9.676 28.795 12.563 43.153 12.563 10.857 0 20.843-1.652 28.015-3.268v40.438c-2.461-2.574-5.206-5.026-8.266-7.318-38.657-28.96-112.439-18.396-115.562-17.933-4.826.717-8.43 4.812-8.528 9.69-.057 2.821-.939 69.436 38.479 98.964 16.216 12.148 36.22 15.785 54.366 15.784 15.841 0 30.265-2.773 39.511-5.074v29.735h-112.29c2.111-13.93 3.584-45.208-20.916-63.561-29.492-22.093-85.186-14.123-87.544-13.774-4.826.717-8.43 4.812-8.528 9.69-.039 1.957-.598 44.275 22.28 68.889-22.304 5.07-39.003 25.059-39.003 48.875v32.386c0 5.523 4.478 10 10 10h200.794c5.522 0 10-4.477 10-10s-4.478-10-10-10h-190.794v-22.386c0-16.607 13.512-30.119 30.119-30.119h411.762c16.607 0 30.119 13.511 30.119 30.119v22.386h-190.794c-5.522 0-10 4.477-10 10s4.478 10 10 10h200.794c5.522 0 10-4.477 10-10v-32.386c0-23.816-16.699-43.805-39.003-48.876zm-186.741-116.402c25.071-18.781 72.283-16.875 91.823-15.128-1.082 17.308-6.21 55.869-30.192 73.835-25.289 18.944-65.983 10.327-80.456 6.395-.604-3.567-1.265-8.688-1.422-14.616.037-1.682.04-3.417.001-5.195.414-15.092 4.61-33.577 20.246-45.291zm-5.629-115.802c16.543-12.393 48.41-12.819 66.705-11.392-1.259 15.594-6.498 41.037-22.154 52.765-17.854 13.375-46.524 7.966-58.354 4.911-.361-2.397-.706-5.465-.824-8.922v-4.971c.389-10.938 3.523-24.072 14.627-32.391zm40.454-104.77c-1.243 11.184-5.144 27.272-15.19 34.799-10.873 8.144-28.999 6.16-39.507 3.676-.925-7.891-.975-22.508 9.463-30.327 10.953-8.206 31.781-8.943 45.234-8.148zm-101.294-27.551c0-19.968 16.245-36.213 36.213-36.213s36.213 16.245 36.213 36.213c0 3.044-.377 6.061-1.119 8.974-9.756 1.71-19.521 4.938-27.238 10.718-3.108 2.328-5.7 4.908-7.856 7.648-2.156-2.74-4.749-5.32-7.856-7.648-7.716-5.781-17.482-9.009-27.238-10.719-.743-2.914-1.119-5.92-1.119-8.973zm-13.677 62.35c-10.05-7.529-13.95-23.622-15.192-34.798 13.454-.796 34.281-.057 45.235 8.147 10.442 7.822 10.388 22.45 9.465 30.326-10.52 2.487-28.641 4.467-39.508-3.675zm39.03 116.326c-14.265 3.74-41.734 7.441-58.317-4.981-16.668-12.487-20.983-39.003-22.094-52.78 18.285-1.438 50.064-1.013 66.645 11.407 16.567 12.411 15.306 35.882 13.766 46.354zm-81.027 128.154c-23.918-17.918-29.078-56.6-30.181-73.896 23.649-2.166 68.582-2.213 91.812 15.188 16.321 12.226 20.133 32.003 20.218 47.49-.001.307-.001.612.001.915-.026 6.817-.757 12.736-1.417 16.715-14.477 3.961-55.059 12.597-80.433-6.412zm247.082 8.898c15.751-11.799 46.03-12.288 63.691-10.951-1.112 13.336-5.318 38.439-21.143 50.293-7.788 5.833-17.736 7.932-27.335 8.212h-4.654c-3.516-.098-6.926-.406-10.1-.825l25.858-17.818c4.548-3.134 5.694-9.361 2.561-13.909-3.132-4.547-9.36-5.694-13.908-2.56l-28.913 19.923c.172-10.761 2.945-24.125 13.943-32.365zm-310.39 0c11.001 8.241 13.772 21.609 13.944 32.366l-28.914-19.924c-4.546-3.133-10.774-1.988-13.908 2.56s-1.987 10.775 2.561 13.909l25.858 17.818c-3.175.419-6.585.727-10.101.825h-4.657c-9.599-.28-19.546-2.379-27.332-8.212-15.829-11.858-20.033-36.977-21.144-50.304 17.642-1.352 47.89-.877 63.693 10.962z"/></g></g></svg>